{"title":"BBC.South.Pacific.4of6.HDTV.720p.Legendado.PT-BR.mkv","uid":9134691,"size":1637658515,"categoryP":"video","categoryS":"hd___tv_shows","magnet":"?xt=urn:btih:49f96c76b351bc01a35aaeb19d39b39b75c74f06&amp;dn=BBC.South.Pacific.4of6.HDTV.720p.Legendado.PT-BR.mkv&amp;tr=udp%3A%2F%2Ftracker.openbittorrent.com%3A80&amp;tr=udp%3A%2F%2Fopen.demonii.com%3A1337&amp;tr=udp%3A%2F%2Ftracker.coppersurfer.tk%3A6969&amp;tr=udp%3A%2F%2Fexodus.desync.com%3A6969","seeders":2,"leechers":1,"uploader":null,"files":1,"time":1383393345,"description":"Episode 1: https://thepiratebay.se/torrent/9134613\nEpisode 2: https://thepiratebay.se/torrent/9134628\nEpisode 3: https://thepiratebay.se/torrent/9134633\n\n++++++++++++++++++++++++++++++++++++++++++++++++++\n\nAudio: English\nLegendas/subtitles: Portugues (hardsubed)\n\n\nVideo\nID                             : 1\nFormat                         : AVC\nFormat/Info                    : Advanced Video Codec\nCodec ID                       : V_MPEG4/ISO/AVC\nDuration                       : 49mn 53s\nBit rate                       : 3 999 Kbps\nWidth                          : 1 280 pixels\nHeight                         : 720 pixels\nDisplay aspect ratio           : 16:9\nFrame rate mode                : Constant\nFrame rate                     : 60.000 fps\nColor space                    : YUV\nChroma subsampling             : 4:2:0\nBit depth                      : 8 bits\nScan type                      : Progressive\nBits/(Pixel*Frame)             : 0.072\nStream size                    : 1.36 GiB (89%)\nWriting library                : x264 core 133 r2334 a3ac64b\nLanguage                       : English\nDefault                        : Yes\nForced                         : No\n\nAudio\nID                             : 2\nFormat                         : AC-3\nFormat/Info                    : Audio Coding 3\nCodec ID                       : A_AC3\nDuration                       : 49mn 53s\nBit rate mode                  : Constant\nBit rate                       : 384 Kbps\nChannel(s)                     : 2 channels\nChannel positions              : Front: L R\nSampling rate                  : 48.0 KHz\nBit depth                      : 16 bits\nStream size                    : 137 MiB (9%)\nLanguage                       : English\nDefault                        : Yes\nForced                         : No\t\t\t","torrent":{"xt":"urn:btih:49f96c76b351bc01a35aaeb19d39b39b75c74f06","amp;dn":"BBC.South.Pacific.4of6.HDTV.720p.Legendado.PT-BR.mkv","amp;tr":["udp%3A%2F%2Ftracker.openbittorrent.com%3A80","udp%3A%2F%2Fopen.demonii.com%3A1337","udp%3A%2F%2Ftracker.coppersurfer.tk%3A6969","udp%3A%2F%2Fexodus.desync.com%3A6969"],"infoHash":"49f96c76b351bc01a35aaeb19d39b39b75c74f06","infoHashBuffer":{"type":"Buffer","data":[73,249,108,118,179,81,188,1,163,90,174,177,157,57,179,155,117,199,79,6]},"announce":[],"urlList":[]}}